<mxfile host="app.diagrams.net" modified="2023-07-21T12:38:37.750Z" agent="Mozilla/5.0 (Windows NT 10.0; Win64; x64; rv:109.0) Gecko/20100101 Firefox/115.0" version="21.6.3" etag="gb_JAXIF7P760RqaVvkw" type="github">
  <diagram name="Page-1" id="XCjugn3RdSu1EJz3mvWV">
    <mxGraphModel>
      <root>
        <mxCell id="0" />
        <mxCell id="1" parent="0" />
      </root>
    </mxGraphModel>
  </diagram>
</mxfile>
